{"title":"Batman v Superman: Dawn of Justice *2016* (Theatrical Cut)[1080p","uid":15376923,"size":8198497562,"categoryP":"video","categoryS":"hd___movies","magnet":"?xt=urn:btih:52af698cb55944d127c354a3102aac5d3ef8243c&amp;dn=Batman+v+Superman%3A+Dawn+of+Justice+%2A2016%2A+%28Theatrical+Cut%29%5B1080p&amp;tr=udp%3A%2F%2Ftracker.leechers-paradise.org%3A6969&amp;tr=udp%3A%2F%2Fzer0day.ch%3A1337&amp;tr=udp%3A%2F%2Fopen.demonii.com%3A1337&amp;tr=udp%3A%2F%2Ftracker.coppersurfer.tk%3A6969&amp;tr=udp%3A%2F%2Fexodus.desync.com%3A6969","seeders":23,"leechers":6,"uploader":"Leon345","files":3,"time":1469196914,"description":"Batman v Superman: Świt sprawiedliwości - Batman v Superman: Dawn of Justice *2016* TC.1080p.BDRip.DTS 5.1.Leon345\r\n===================================================\r\nDopasowane rozmiarem pod DVD9 ( do nagrania na płytke jeśli jeszcze ktoś to robi :)\r\n===================================================\r\n\r\ngatunek: Akcja,Sci-Fi\r\nprodukcja: USA\r\npremiera: 1 kwietnia 2016 (Polska) 19 marca 2016 (świat)\r\nreżyseria: Zack Snyder\r\nscenariusz: Chris Terrio,David S. Goyer\r\n \nhttp://imdb.com/title/tt2975590/\r\n\r\n[img]http://i1365.photobucket.com/albums/r749/leon3456/BatmanvSuperman.2016_zpsytasdpbu.jpg[/img]\r\n\r\nW obawie przed poczynaniami nieposkromionego superbohatera o boskich rysach i zdolnościach, najznamienitszy obywatel Gotham City, a zarazem zaciekły strażnik porządku, staje do walki z otaczanym czcią współczesnym wybawcą Metropolis, podczas gdy świat usiłuje ustalić, jakiego bohatera naprawdę potrzebuje. Wobec konfliktu, który rozgorzał między Batmanem i Supermanem, na horyzoncie szybko pojawia się nowy wróg, stawiając ludzkość w obliczu śmiertelnego niebezpieczeństwa, z jakim jeszcze nigdy nie musiała się mierzyć.\r\n\r\nOBSADA:\r\n\r\nBen Affleck - Bruce Wayne / Batman (Jacek Rozenek polski dubbing) \r\nHenry Cavill - Clark Kent / Superman (Grzegorz Kwiecień polski dubbing) \r\nJesse Eisenberg - Lex Luthor (Krzysztof Szczepaniak polski dubbing) \r\nAmy Adams - Lois Lane (Bożena Furczyk polski dubbing) \r\nGal Gadot - Diana Prince / Wonder Woman (Anna Sroka polski dubbing) \r\nJeremy Irons - Alfred Pennyworth (Andrzej Chudy polski dubbing) \r\nHolly Hunter - Senator June Finch (Ewa Serwa polski dubbing)\r\n\r\nFormat : Matroska\r\nFormat version : Version 2\r\nFile size : 7.64 GiB\r\nDuration : 2h 31mn\r\nOverall bit rate : 7 206 Kbps\r\nMovie name : Batman.v.Superman.2016.1080p.BDRip.DTS.Leon345\r\nEncoded date : UTC 2016-07-21 10:49:03\r\nWriting application : mkvmerge v5.7.0 ('The Whirlwind') built on Jul 8 2012 20:08:51\r\nWriting library : libebml v1.2.3 + libmatroska v1.3.0\r\n\r\nVideo\r\nID : 1\r\nFormat : AVC\r\nFormat/INFO : Advanced Video Codec\r\nFormat profile :   \r\nFormat settings, CABAC : Yes\r\nFormat settings, ReFrames : 4 frames\r\nCodec ID : V_MPEG4/ISO/AVC\r\nDuration : 2h 31mn\r\nBit rate : 5 249 Kbps\r\nWidth : 1 920 pixels\r\nHeight : 800 pixels\r\nDisplay aspect ratio : 2.40:1\r\nFrame rate mode : Constant\r\nFrame rate : 23.976 (24000/1001) fps\r\nColor space : YUV\r\nChroma subsampling : 4:2:0\r\nBit depth : 8 bits\r\nScan type : Progressive\r\nBits/(Pixel*Frame) : 0.143\r\nStream size : 5.41 GiB (71%)\r\nWriting library : x264 \r\nEncoding settings : cabac=1 / ref=4 / deblock=1:-1:-1 / rc=2pass\r\nDefault : Yes\r\nForced : No\r\n\r\nAudio #1\r\nID : 2\r\nFormat : AC-3\r\nFormat/INFO : Audio Coding 3\r\nMode extension : CM (complete main)\r\nFormat settings, Endianness : Big\r\nCodec ID : A_AC3\r\nDuration : 2h 31mn\r\nBit rate mode : Constant\r\nBit rate : 448 Kbps\r\nChannel(s) : 6 channels\r\nChannel positions : Front: L C R, Side: L R, LFE\r\nSampling rate : 48.0 KHz\r\nCompression mode : Lossy\r\nStream size : 486 MiB (6%)\r\nTitle : AC3 5.1 Dubbing PL\r\nLanguage : Polish\r\nDefault : Yes\r\nForced : No\r\n\r\nAudio #2\r\nID : 3\r\nFormat : DTS\r\nFormat/INFO : Digital Theater Systems\r\nMode : 16\r\nFormat settings, Endianness : Big\r\nCodec ID : A_DTS\r\nDuration : 2h 31mn\r\nBit rate mode : Constant\r\nBit rate : 1 509 Kbps\r\nChannel(s) : 6 channels\r\nChannel positions : Front: L C R, Side: L R, LFE\r\nSampling rate : 48.0 KHz\r\nBit depth : 24 bits\r\nCompression mode : Lossy\r\nStream size : 1.60 GiB (21%)\r\nTitle : DTS 5.1 ENG\r\nLanguage : English\r\nDefault : No\r\nForced : No\r\n\r\nText #1\r\nID : 4\r\nFormat : UTF-8\r\nCodec ID : S_TEXT/UTF8\r\nCodec ID/INFO : UTF-8 Plain Text\r\nLanguage : Polish\r\nDefault : No\r\nForced : No\r\n\r\nText #2\r\nID : 5\r\nFormat : UTF-8\r\nCodec ID : S_TEXT/UTF8\r\nCodec ID/INFO : UTF-8 Plain Text\r\nLanguage : English\r\nDefault : No\r\nForced : No\r\n\r\nSource:\r\nA/V-BD CEE","torrent":{"xt":"urn:btih:52af698cb55944d127c354a3102aac5d3ef8243c","amp;dn":"Batman+v+Superman%3A+Dawn+of+Justice+%2A2016%2A+%28Theatrical+Cut%29%5B1080p","amp;tr":["udp%3A%2F%2Ftracker.leechers-paradise.org%3A6969","udp%3A%2F%2Fzer0day.ch%3A1337","udp%3A%2F%2Fopen.demonii.com%3A1337","udp%3A%2F%2Ftracker.coppersurfer.tk%3A6969","udp%3A%2F%2Fexodus.desync.com%3A6969"],"infoHash":"52af698cb55944d127c354a3102aac5d3ef8243c","infoHashBuffer":{"type":"Buffer","data":[82,175,105,140,181,89,68,209,39,195,84,163,16,42,172,93,62,248,36,60]},"announce":[],"urlList":[]}}